<svg xmlns="http://www.w3.org/2000/svg" viewBox="0 0 313.7 306.47"><defs><style>.cls-1{fill:#fff;}</style></defs><g id="Layer_2" data-name="Layer 2"><g id="Layer_1-2" data-name="Layer 1"><path class="cls-1" d="M143.44,250.8c5.91-1,11.54-3.22,15.67-7.45,6.06-6.2,7.71-15.36,8.76-24a364.09,364.09,0,0,0-.36-91.17A3,3,0,0,1,171,124.8c21.28,3.18,39.13,20.55,46.74,40.89,6.58,17.58,6.6,36.87,3.2,55.46a3,3,0,0,0,5.58,2.17A71.64,71.64,0,0,0,237,193.69c1.88-14.94-.56-30.23-5.75-44.36-5.47-14.93-14.18-28.92-26.49-39a65,65,0,0,0-26.6-13.12,2,2,0,0,1-1.49-1.37c-3.34-10.79-.06-.07-3.43-12.36a1.35,1.35,0,0,1,1.36-1.71c8.34.52,21.37,3.53,27.73,7.53a97.16,97.16,0,0,1,32.73,33.5,115,115,0,0,1,14.22,71.31,3,3,0,0,0,5.71,1.81,90.49,90.49,0,0,0,9.49-47.31c-1.46-21.56-10-42.31-22.69-59.83-12.35-17.11-29-31.62-48.94-38.59-19-6.66-41.18-5.77-58.42,4.56a3.06,3.06,0,0,0-1.21,3.91,274.79,274.79,0,0,1,24.15,135,3,3,0,0,1-5.21,1.9,79,79,0,0,0-47.6-23.31c-12.83-1.39-27.7,1.51-34.49,12.48-5,8-4.25,18.63-.32,27.23,11.1,24.25,39.68,39.74,65.73,39.46A51.86,51.86,0,0,0,143.44,250.8Z"/><path class="cls-1" d="M258.46,60.08a1.76,1.76,0,0,0-2.39,2.56C296.24,111,297.16,179.75,264,227.47c-18.3,26.28-42.66,44.52-73.38,53.61-32.41,9.59-63.86,7.77-94.59-5.58a1.77,1.77,0,0,0-1.8,3c31.31,24.36,78.21,37,127.61,20.44,50.48-17,87.91-65,91.58-119.39A136.11,136.11,0,0,0,258.46,60.08Z"/><path class="cls-1" d="M59.61,66.36C94.69,25.48,160.08,5.07,219.91,32.68a1.77,1.77,0,0,0,1.85-3C186.66,1.33,135.6-9.39,86.74,9.39,35.25,29.18-.13,81,0,136.4c.11,49,25.78,87.76,52.75,108a1.77,1.77,0,0,0,2.45-2.51c-18.93-24.2-28.9-51.58-29.59-82.57C24.83,124,36.71,93,59.61,66.36Z"/></g></g></svg>