<svg xmlns="http://www.w3.org/2000/svg" viewBox="0 0 927.08 306.47"><defs><style>.cls-1{fill:#fff;}</style></defs><g id="Layer_2" data-name="Layer 2"><g id="Layer_1-2" data-name="Layer 1"><path class="cls-1" d="M143.44,250.8c5.91-1,11.54-3.22,15.67-7.45,6.06-6.2,7.71-15.36,8.76-24a364.09,364.09,0,0,0-.36-91.17A3,3,0,0,1,171,124.8c21.28,3.18,39.13,20.55,46.74,40.89,6.58,17.58,6.6,36.87,3.2,55.46a3,3,0,0,0,5.58,2.17A71.64,71.64,0,0,0,237,193.69c1.88-14.94-.56-30.23-5.75-44.36-5.47-14.93-14.18-28.92-26.49-39a65,65,0,0,0-26.6-13.12,2,2,0,0,1-1.49-1.37c-3.34-10.79-.06-.07-3.43-12.36a1.35,1.35,0,0,1,1.36-1.71c8.34.52,21.37,3.53,27.73,7.53a97.16,97.16,0,0,1,32.73,33.5,115,115,0,0,1,14.22,71.31,3,3,0,0,0,5.71,1.81,90.49,90.49,0,0,0,9.49-47.31c-1.46-21.56-10-42.31-22.69-59.83-12.35-17.11-29-31.62-48.94-38.59-19-6.66-41.18-5.77-58.42,4.56a3.06,3.06,0,0,0-1.21,3.91,274.79,274.79,0,0,1,24.15,135,3,3,0,0,1-5.21,1.9,79,79,0,0,0-47.6-23.31c-12.83-1.39-27.7,1.51-34.49,12.48-5,8-4.25,18.63-.32,27.23,11.1,24.25,39.68,39.74,65.73,39.46A51.86,51.86,0,0,0,143.44,250.8Z"/><path class="cls-1" d="M258.46,60.08a1.76,1.76,0,0,0-2.39,2.56C296.24,111,297.16,179.75,264,227.47c-18.3,26.28-42.66,44.52-73.38,53.61-32.41,9.59-63.86,7.77-94.59-5.58a1.77,1.77,0,0,0-1.8,3c31.31,24.36,78.21,37,127.61,20.44,50.48-17,87.91-65,91.58-119.39A136.11,136.11,0,0,0,258.46,60.08Z"/><path class="cls-1" d="M59.61,66.36C94.69,25.48,160.08,5.07,219.91,32.68a1.77,1.77,0,0,0,1.85-3C186.66,1.33,135.6-9.39,86.74,9.39,35.25,29.18-.13,81,0,136.4c.11,49,25.78,87.76,52.75,108a1.77,1.77,0,0,0,2.45-2.51c-18.93-24.2-28.9-51.58-29.59-82.57C24.83,124,36.71,93,59.61,66.36Z"/><path class="cls-1" d="M385.79,214.9A167.9,167.9,0,0,1,391,198.38q3.33-9.09,7.67-19t9.58-20q5.22-10.17,10.85-19.79t11.53-18.18a187.68,187.68,0,0,1,11.68-15.29c1.1-1.24,2.49-2.77,4.15-4.59S450,97.82,452,95.87s4.2-3.89,6.45-5.81a72.35,72.35,0,0,1,6.79-5.18,43.73,43.73,0,0,1,6.65-3.72,15,15,0,0,1,6-1.41A17.58,17.58,0,0,1,484.64,81a15,15,0,0,1,5.28,3.61,16.76,16.76,0,0,1,3.42,5.62,20.49,20.49,0,0,1,1.22,7.18,22,22,0,0,1-.25,3.33q-.24,1.65-.63,3.42l-10.85,54.53q1.47-2.25,4.11-6.11t6-8.6q3.32-4.74,6.94-9.87t7.08-9.92q3.46-4.78,6.4-8.75c2-2.64,3.55-4.77,4.79-6.4l1.76-2.25q1.75-2.24,4.3-5.27c1.69-2,3.57-4.14,5.62-6.35s4.21-4.4,6.5-6.55a70.59,70.59,0,0,1,6.93-5.77,44,44,0,0,1,6.94-4.15,15.27,15.27,0,0,1,6.55-1.61,6.8,6.8,0,0,1,3.91,1.07,8.17,8.17,0,0,1,2.54,2.88,13.42,13.42,0,0,1,1.37,4.26,32.09,32.09,0,0,1,.39,5.08,52.29,52.29,0,0,1-.68,8.3q-.69,4.22-1.57,7.63c-.33,1.82-.76,4.43-1.32,7.81s-1.2,7.28-2,11.68-1.55,9.16-2.4,14.27-1.71,10.31-2.59,15.59-1.76,10.49-2.63,15.63-1.7,9.95-2.45,14.42-1.43,8.45-2.05,12-1.12,6.25-1.51,8.21c-.2.91-.51,2.15-.93,3.71a21.89,21.89,0,0,1-1.86,4.59,13.29,13.29,0,0,1-3.22,3.91,7.49,7.49,0,0,1-4.94,1.66,5,5,0,0,1-3-1,11.38,11.38,0,0,1-2.54-2.59,13.11,13.11,0,0,1-1.76-3.38,12.34,12.34,0,0,1-.73-3.27L547.13,113c.2-.91.36-1.72.49-2.44a11.55,11.55,0,0,0,.2-2,7.05,7.05,0,0,0-.25-2c-.16-.58-.31-1.14-.44-1.66s-.39-1.11-.58-1.56a85.82,85.82,0,0,0-9.43,8.45q-5,5.13-10.17,11.43t-10.26,13.39q-5.13,7.1-9.72,14.22-3.62,5.57-7.77,11.73l-8.35,12.36q-4.22,6.21-8.16,12.41t-7.19,11.87a52.45,52.45,0,0,0-3.22,7q-1.66,4.31-3.67,8.4a39.3,39.3,0,0,1-4.3,7,6.59,6.59,0,0,1-5.22,2.93,9.28,9.28,0,0,1-3.77-.68,6.19,6.19,0,0,1-2.39-1.81,7,7,0,0,1-1.27-2.64,13.09,13.09,0,0,1-.39-3.27,22.88,22.88,0,0,1,.44-4.5c.29-1.5.6-2.93.93-4.3q2-8.6,4.3-17.1t4.64-17.39q2.39-8.9,4.93-18.42t5.18-20.28c.46-2,1-4.29,1.56-6.79s1.14-5,1.67-7.63.94-5.06,1.27-7.47a49.72,49.72,0,0,0,.49-6.45,16.81,16.81,0,0,0-.4-4.06c-.26-1-.75-1.51-1.46-1.51A13.79,13.79,0,0,0,467.2,103a47.31,47.31,0,0,0-8.11,7.09A95.71,95.71,0,0,0,451,120.1q-4,5.67-7.62,11.68t-6.74,11.88q-3.14,5.86-5.38,10.55c-.32.65-.79,1.55-1.41,2.69s-1.44,2.73-2.45,4.79-2.24,4.67-3.71,7.86-3.19,7.23-5.18,12.12-4.28,10.72-6.89,17.49-5.54,14.73-8.79,23.85a7.88,7.88,0,0,1-3.08,3.81,8.07,8.07,0,0,1-4.55,1.46c-3.38,0-5.88-.91-7.47-2.73a9.87,9.87,0,0,1-2.4-6.74A18.07,18.07,0,0,1,385.79,214.9Z"/><path class="cls-1" d="M592.77,136.52a9,9,0,0,1,1.12-2.69,7.84,7.84,0,0,1,1.57-1.8,6.57,6.57,0,0,1,1.51-1,2.9,2.9,0,0,1,1.08-.29,16.12,16.12,0,0,1,2.54.24c1,.16,1.92.31,2.83.44l3,.59a4.1,4.1,0,0,1,3.67,2.05,9.35,9.35,0,0,1,1.12,4.69,13.31,13.31,0,0,1-.59,4q-3.31,12.21-6,21.25T600,179.42Q598,185.78,597,189.78a27,27,0,0,0-1,6.06,22.16,22.16,0,0,0,.53,4.59,20.07,20.07,0,0,0,1.62,4.74,11.48,11.48,0,0,0,2.73,3.67,5.88,5.88,0,0,0,4,1.46,15.91,15.91,0,0,0,8.3-2.54,45.65,45.65,0,0,0,8-6.2,62.62,62.62,0,0,0,6.89-7.82q3.07-4.16,5-7.38l2.54-4.4a66.13,66.13,0,0,0,4.35-9.43q2-5.33,3.52-10.7t2.59-10.11c.71-3.16,1.27-5.68,1.66-7.57l2.54-13q.78-3.72,2.39-5.13t5.43-1.42a16.49,16.49,0,0,1,4.39.54,7.43,7.43,0,0,1,3.33,1.9,8.64,8.64,0,0,1,2,3.67,21.41,21.41,0,0,1,.68,5.91,50.25,50.25,0,0,1-1.32,10.31Q666,153,664.4,159.19c-.59,2.42-1.19,5-1.81,7.68s-1.17,5.4-1.66,8.11-.88,5.27-1.17,7.72a56.5,56.5,0,0,0-.44,6.59q0,5,.34,10t.34,10.55c0,1.7,0,3.2-.14,4.5a15.41,15.41,0,0,1-.44,2.93,14,14,0,0,1-2.79,5.67q-1.71,1.86-5.81,1.86a13,13,0,0,1-4.5-.64,6.25,6.25,0,0,1-2.59-1.71,5.4,5.4,0,0,1-1.22-2.39,20,20,0,0,1-.39-2.69l-1.07-18.47-.88.29q-3.23,4.11-7,9.19a77.16,77.16,0,0,1-8.4,9.48,48.13,48.13,0,0,1-10,7.38,24.15,24.15,0,0,1-11.78,3,11.51,11.51,0,0,1-3.27-.64,36.32,36.32,0,0,1-4.15-1.61,35,35,0,0,1-4.11-2.2,21.78,21.78,0,0,1-3.13-2.3,28.32,28.32,0,0,1-7.62-11.23,37.3,37.3,0,0,1-2.24-12.71,45.18,45.18,0,0,1,.58-7.23q.59-3.61,1.37-7t1.71-6.35q.93-3,1.51-5.32,1.86-7.34,3.33-12.9c1-3.72,1.84-7,2.59-9.78s1.38-5.19,1.9-7.18S592.38,138,592.77,136.52Z"/><path class="cls-1" d="M678.67,213.43a13,13,0,0,1,2.25-4.35,45,45,0,0,1,3.66-4.25,52.13,52.13,0,0,1,4-3.71c1.33-1.11,2.46-2,3.37-2.74q4.69-4.4,10.94-10.31t12.71-12.26q6.45-6.36,12.36-12.61t10-11.33c-2,.06-4.29.13-7,.19l-8.11.2-7.57.19c-2.35.07-4.11.1-5.28.1a14.53,14.53,0,0,1-3.86-.49,8.25,8.25,0,0,1-3.18-1.61,8.44,8.44,0,0,1-2.2-2.84,9.48,9.48,0,0,1-.83-4.15,7.52,7.52,0,0,1,1.47-4.49,5.66,5.66,0,0,1,3.71-2.45c1.11.13,2.23.23,3.37.3s2.36.09,3.67.09a110.55,110.55,0,0,0,12.31-.73c4.37-.49,8.71-1,13-1.61s8.55-1.13,12.65-1.61a95,95,0,0,1,11.14-.74,13.71,13.71,0,0,1,3.28.34,7,7,0,0,1,2.34,1.08,8.64,8.64,0,0,1,1.91,1.91c.58.78,1.24,1.75,2,2.93a4,4,0,0,1,.59,1.32,6.17,6.17,0,0,1,.1,1,9,9,0,0,1-1,4.16,17,17,0,0,1-2.84,3.86,9.32,9.32,0,0,0-3.12,1.61c-1.37.94-2.93,2.12-4.69,3.52s-3.6,3-5.52,4.69-3.8,3.42-5.62,5.08-3.49,3.21-5,4.64-2.7,2.58-3.61,3.42l-1,.88q-1.47,1.37-4.45,4.25c-2,1.92-4.22,4.12-6.69,6.6s-5.07,5.1-7.77,7.86l-7.82,8-6.84,7q-3.08,3.18-4.74,5a4.45,4.45,0,0,0,1.37.24c.59,0,1.14.05,1.66.05a39.58,39.58,0,0,0,6.89-.69q3.86-.68,7.67-1.17l26.49-3.71a19.51,19.51,0,0,1,4.05-1.56q2.68-.78,5.13-1.37l2.93-.69a26.35,26.35,0,0,0,3.57-1l2.49-1a16.45,16.45,0,0,1,2-.68,8.3,8.3,0,0,1,2.19-.25,7,7,0,0,1,3.38.73,5.7,5.7,0,0,1,2.1,2,12.15,12.15,0,0,1,1.27,3c.32,1.14.65,2.36,1,3.66a14,14,0,0,1-1.22,3.28,11.91,11.91,0,0,1-2,2.83,11.08,11.08,0,0,1-2.54,2,5.05,5.05,0,0,1-4.89.3c-1.11.19-2.75.5-4.93.93l-8.8,1.66q-5.52,1-13.58,2.44t-19.3,3.27q-1.08.19-4,.54t-6.11.68q-3.23.34-6.1.59c-1.93.16-3.25.25-4,.25a31.89,31.89,0,0,1-6.4-.69A24.11,24.11,0,0,1,685,225a14.45,14.45,0,0,1-4.74-3.76,8.34,8.34,0,0,1-1.85-5.42A11.16,11.16,0,0,1,678.67,213.43Z"/><path class="cls-1" d="M787.92,205.61q1.47-5.67,3.52-13.19l4.35-15.93q2.3-8.4,4.64-17.2t4.4-17.1a5.42,5.42,0,0,1,.68-1.32,8.49,8.49,0,0,1,1.67-1.86,10.1,10.1,0,0,1,2.73-1.61,10.35,10.35,0,0,1,3.91-.68,15,15,0,0,1,3.23.34,10,10,0,0,1,2.78,1,5.45,5.45,0,0,1,1.95,1.8,4.65,4.65,0,0,1,.74,2.59v.64a2.08,2.08,0,0,1-.1.63l-2.74,10.36q-4.59,17.4-9.33,34.89t-9.23,35.08c-.14.39-.33.88-.59,1.47a8.62,8.62,0,0,1-1.08,1.76,6,6,0,0,1-1.66,1.46,4.47,4.47,0,0,1-2.34.59,9.48,9.48,0,0,1-4.5-1,11.21,11.21,0,0,1-3.32-2.59,10.75,10.75,0,0,1-2-3.42,10.07,10.07,0,0,1-.69-3.51v-.88a2.4,2.4,0,0,1,.2-.88Zm25.51-101.14a30.08,30.08,0,0,1,1.76-5,12.93,12.93,0,0,1,4.49-5.28,20.88,20.88,0,0,1,3.81-1.61,12.2,12.2,0,0,1,3.23-.74,3.58,3.58,0,0,1,2,.69A11.2,11.2,0,0,1,830.53,94a21.77,21.77,0,0,1,1.86,2.15c1.63.13,2.68.72,3.17,1.76a8.66,8.66,0,0,1,.74,3.72,12.35,12.35,0,0,1-.3,2.83c-.19.85-.35,1.53-.48,2a9,9,0,0,1-2.25,3.76,17.28,17.28,0,0,1-3.81,2.94,21.09,21.09,0,0,1-4.5,1.9,14.79,14.79,0,0,1-4.1.69,6.34,6.34,0,0,1-3.47-.79,13.42,13.42,0,0,1-3.08-3.32,6.28,6.28,0,0,1-1.22-2.3,8.07,8.07,0,0,1-.15-1.41,10.89,10.89,0,0,1,.15-1.91C813.19,105.53,813.3,105,813.43,104.47Z"/><path class="cls-1" d="M879.78,176.2a12.46,12.46,0,0,0-4.39.93,45.72,45.72,0,0,0-4.89,2.2q-2.44,1.26-4.69,2.63a40.52,40.52,0,0,1-3.91,2.15L853,219.29a4.69,4.69,0,0,1-2.45,3.13A7.53,7.53,0,0,1,847,223.5q-5.28,0-7.18-2.1a7.86,7.86,0,0,1-1.91-5.53,19.09,19.09,0,0,1,.24-3c.17-1,.38-2.06.64-3.17l.39-1.66q.58-2.64,1.61-6.65t2.2-8.45c.78-3,1.58-6,2.4-9s1.57-5.82,2.29-8.36,1.78-6.15,3.18-11,3-10.36,4.69-16.42,3.52-12.39,5.37-19,3.62-12.91,5.28-18.91,3.14-11.31,4.45-16,2.21-8.1,2.73-10.31a6.45,6.45,0,0,1,2.74-2.25,10.13,10.13,0,0,1,4.4-.88,15.82,15.82,0,0,1,3.61.44,11.31,11.31,0,0,1,3.37,1.37A8.35,8.35,0,0,1,890,85a5.66,5.66,0,0,1,1,3.28,9.9,9.9,0,0,1-.58,3q-5.87,17-11.63,35.23T868.25,163.4q1.28-.78,4.69-3.23t7.58-5.67q4.14-3.23,8.35-6.74t7-6.35c1.3-1.3,2.62-2.66,4-4.06l3.82-4q1.8-1.9,3.17-3.42l2.15-2.4a19.1,19.1,0,0,1,4.06-3.57,8.12,8.12,0,0,1,4.44-1.41,10.8,10.8,0,0,1,3.91.68,11.3,11.3,0,0,1,3,1.71,7.48,7.48,0,0,1,2,2.35,5.5,5.5,0,0,1,.68,2.49,8.35,8.35,0,0,1-.68,3.13,24.87,24.87,0,0,1-1.62,3.22,23.66,23.66,0,0,1-2,2.88,17.81,17.81,0,0,1-1.86,2q-2.62,2.34-6,5.13c-2.21,1.85-4.53,3.75-6.94,5.67s-4.87,3.84-7.37,5.76-4.94,3.76-7.28,5.52a29.68,29.68,0,0,1,10.11,9.14,50.21,50.21,0,0,1,6.3,12.7A71.5,71.5,0,0,1,913,199.65a132.11,132.11,0,0,1,.88,15c0,.39,0,1-.1,1.81a11.87,11.87,0,0,1-.39,2.3,22,22,0,0,1-1.17,3.22,7.76,7.76,0,0,1-1.81,2.49,8,8,0,0,1-2.74,1.61,11.38,11.38,0,0,1-3.95.59,8.53,8.53,0,0,1-3.82-.78,7.85,7.85,0,0,1-2.59-2.05,8.45,8.45,0,0,1-1.51-2.84,10.26,10.26,0,0,1-.49-3.12q0-4.89-.29-10.12a85.78,85.78,0,0,0-1.17-10.11,61.19,61.19,0,0,0-2.4-9.24,25.71,25.71,0,0,0-4-7.47,23.53,23.53,0,0,0-3.27-3.52,5.5,5.5,0,0,0-3.67-1.27Z"/></g></g></svg>