<svg xmlns="http://www.w3.org/2000/svg" viewBox="0 0 50 50"><defs><style>.cls-1{fill:#fff;}</style></defs><g id="Layer_2" data-name="Layer 2"><g id="Layer_1-2" data-name="Layer 1"><path class="cls-1" d="M22.86,40.92a4.42,4.42,0,0,0,2.5-1.22,6.64,6.64,0,0,0,1.4-3.91,60.64,60.64,0,0,0-.06-14.87.49.49,0,0,1,.55-.56c3.39.52,6.24,3.35,7.45,6.67a17.35,17.35,0,0,1,.51,9,.48.48,0,0,0,.89.35,11.77,11.77,0,0,0,1.68-4.83,15.82,15.82,0,0,0-.92-7.24A14.75,14.75,0,0,0,32.64,18a10.45,10.45,0,0,0-4.24-2.14.33.33,0,0,1-.24-.22c-.53-1.76,0,0-.54-2a.22.22,0,0,1,.21-.28,11.33,11.33,0,0,1,4.42,1.23A15.63,15.63,0,0,1,37.47,20a19.1,19.1,0,0,1,2.27,11.63.49.49,0,0,0,.91.3,15.18,15.18,0,0,0,1.51-7.72,19.29,19.29,0,0,0-3.62-9.76,16.78,16.78,0,0,0-7.8-6.3,10.93,10.93,0,0,0-9.31.75.5.5,0,0,0-.19.63,45.9,45.9,0,0,1,3.85,22,.48.48,0,0,1-.83.31,12.52,12.52,0,0,0-7.59-3.8c-2.05-.23-4.41.25-5.5,2a4.92,4.92,0,0,0-.05,4.44A11.71,11.71,0,0,0,21.6,41,8.93,8.93,0,0,0,22.86,40.92Z"/><path class="cls-1" d="M41.2,9.8a.29.29,0,0,0-.39.42,22.86,22.86,0,0,1,1.26,26.89,21.35,21.35,0,0,1-11.7,8.75A21,21,0,0,1,15.3,45a.29.29,0,0,0-.29.49,21.31,21.31,0,0,0,20.34,3.33,22.52,22.52,0,0,0,5.85-39Z"/><path class="cls-1" d="M9.5,10.83a21.55,21.55,0,0,1,25.55-5.5.29.29,0,0,0,.3-.48A21.39,21.39,0,0,0,13.83,1.53,22.53,22.53,0,0,0,8.41,39.87a.29.29,0,0,0,.39-.41A22.39,22.39,0,0,1,4.08,26,22.22,22.22,0,0,1,9.5,10.83Z"/></g></g></svg>